<svg xmlns="http://www.w3.org/2000/svg" viewBox="0 0 880 356" role="img"
     aria-label="MPEG-TS 패킷 헤더 4바이트를 32비트로 펼친 지도. sync byte 8비트, TEI·PUSI·transport priority 각 1비트, PID 13비트, transport scrambling control 2비트, adaptation field control 2비트, continuity counter 4비트. 바이트 경계를 걸치는 필드는 PID 하나뿐이다.">
  <style>
    .bg      { fill:#ffffff; stroke:#d8dee6 }
    .cell    { fill:#f6f8fa; stroke:#d8dee6 }
    .fld     { fill:#eaeef2; stroke:#d8dee6 }
    .fldacc  { fill:#ddf4ff; stroke:#0969da }
    .fldwarn { fill:#fff8c5; stroke:#9a6700 }
    .ink     { fill:#1f2328 }
    .muted   { fill:#656d76 }
    .acc     { fill:#0969da }
    .warn    { fill:#9a6700 }
    .rule    { stroke:#d8dee6 }
    .sep     { stroke:#8c959f }
    @media (prefers-color-scheme: dark) {
      .bg      { fill:#0d1117; stroke:#30363d }
      .cell    { fill:#161b22; stroke:#30363d }
      .fld     { fill:#21262d; stroke:#30363d }
      .fldacc  { fill:#123a63; stroke:#4493f8 }
      .fldwarn { fill:#3d2e00; stroke:#d29922 }
      .ink     { fill:#e6edf3 }
      .muted   { fill:#8b949e }
      .acc     { fill:#4493f8 }
      .warn    { fill:#d29922 }
      .rule    { stroke:#30363d }
      .sep     { stroke:#6e7681 }
    }
    text { font-family:-apple-system, BlinkMacSystemFont, 'Apple SD Gothic Neo', 'Noto Sans KR', 'Malgun Gothic', sans-serif }
    .m  { font-family:ui-monospace, SFMono-Regular, Menlo, Consolas, monospace }
  </style>

  <rect class="bg" x="20" y="16" width="840" height="324" rx="10" stroke-width="1"/>
  <text class="ink" x="44" y="48" font-size="15" font-weight="600">헤더 4바이트 = 32비트 — 필드 경계는 바이트 경계와 일치하지 않는다</text>

  <text class="muted m" x="146" y="76" font-size="12" text-anchor="middle">pkt[0]</text>
  <text class="muted m" x="342" y="76" font-size="12" text-anchor="middle">pkt[1]</text>
  <text class="muted m" x="538" y="76" font-size="12" text-anchor="middle">pkt[2]</text>
  <text class="muted m" x="734" y="76" font-size="12" text-anchor="middle">pkt[3]</text>

  <rect class="cell" x="48" y="84" width="784" height="34" stroke-width="1"/>
  <line class="rule" x1="72.5"  y1="84" x2="72.5"  y2="118" stroke-width="1"/>
  <line class="rule" x1="97"    y1="84" x2="97"    y2="118" stroke-width="1"/>
  <line class="rule" x1="121.5" y1="84" x2="121.5" y2="118" stroke-width="1"/>
  <line class="rule" x1="146"   y1="84" x2="146"   y2="118" stroke-width="1"/>
  <line class="rule" x1="170.5" y1="84" x2="170.5" y2="118" stroke-width="1"/>
  <line class="rule" x1="195"   y1="84" x2="195"   y2="118" stroke-width="1"/>
  <line class="rule" x1="219.5" y1="84" x2="219.5" y2="118" stroke-width="1"/>
  <line class="rule" x1="268.5" y1="84" x2="268.5" y2="118" stroke-width="1"/>
  <line class="rule" x1="293"   y1="84" x2="293"   y2="118" stroke-width="1"/>
  <line class="rule" x1="317.5" y1="84" x2="317.5" y2="118" stroke-width="1"/>
  <line class="rule" x1="342"   y1="84" x2="342"   y2="118" stroke-width="1"/>
  <line class="rule" x1="366.5" y1="84" x2="366.5" y2="118" stroke-width="1"/>
  <line class="rule" x1="391"   y1="84" x2="391"   y2="118" stroke-width="1"/>
  <line class="rule" x1="415.5" y1="84" x2="415.5" y2="118" stroke-width="1"/>
  <line class="rule" x1="464.5" y1="84" x2="464.5" y2="118" stroke-width="1"/>
  <line class="rule" x1="489"   y1="84" x2="489"   y2="118" stroke-width="1"/>
  <line class="rule" x1="513.5" y1="84" x2="513.5" y2="118" stroke-width="1"/>
  <line class="rule" x1="538"   y1="84" x2="538"   y2="118" stroke-width="1"/>
  <line class="rule" x1="562.5" y1="84" x2="562.5" y2="118" stroke-width="1"/>
  <line class="rule" x1="587"   y1="84" x2="587"   y2="118" stroke-width="1"/>
  <line class="rule" x1="611.5" y1="84" x2="611.5" y2="118" stroke-width="1"/>
  <line class="rule" x1="660.5" y1="84" x2="660.5" y2="118" stroke-width="1"/>
  <line class="rule" x1="685"   y1="84" x2="685"   y2="118" stroke-width="1"/>
  <line class="rule" x1="709.5" y1="84" x2="709.5" y2="118" stroke-width="1"/>
  <line class="rule" x1="734"   y1="84" x2="734"   y2="118" stroke-width="1"/>
  <line class="rule" x1="758.5" y1="84" x2="758.5" y2="118" stroke-width="1"/>
  <line class="rule" x1="783"   y1="84" x2="783"   y2="118" stroke-width="1"/>
  <line class="rule" x1="807.5" y1="84" x2="807.5" y2="118" stroke-width="1"/>

  <line class="sep" x1="244" y1="84" x2="244" y2="160" stroke-width="1.6"/>
  <line class="sep" x1="440" y1="84" x2="440" y2="160" stroke-width="1.6"/>
  <line class="sep" x1="636" y1="84" x2="636" y2="160" stroke-width="1.6"/>

  <text class="muted m" x="60.25"  y="106" font-size="9.5" text-anchor="middle">7</text>
  <text class="muted m" x="84.75"  y="106" font-size="9.5" text-anchor="middle">6</text>
  <text class="muted m" x="109.25" y="106" font-size="9.5" text-anchor="middle">5</text>
  <text class="muted m" x="133.75" y="106" font-size="9.5" text-anchor="middle">4</text>
  <text class="muted m" x="158.25" y="106" font-size="9.5" text-anchor="middle">3</text>
  <text class="muted m" x="182.75" y="106" font-size="9.5" text-anchor="middle">2</text>
  <text class="muted m" x="207.25" y="106" font-size="9.5" text-anchor="middle">1</text>
  <text class="muted m" x="231.75" y="106" font-size="9.5" text-anchor="middle">0</text>
  <text class="muted m" x="256.25" y="106" font-size="9.5" text-anchor="middle">7</text>
  <text class="muted m" x="280.75" y="106" font-size="9.5" text-anchor="middle">6</text>
  <text class="muted m" x="305.25" y="106" font-size="9.5" text-anchor="middle">5</text>
  <text class="muted m" x="329.75" y="106" font-size="9.5" text-anchor="middle">4</text>
  <text class="muted m" x="354.25" y="106" font-size="9.5" text-anchor="middle">3</text>
  <text class="muted m" x="378.75" y="106" font-size="9.5" text-anchor="middle">2</text>
  <text class="muted m" x="403.25" y="106" font-size="9.5" text-anchor="middle">1</text>
  <text class="muted m" x="427.75" y="106" font-size="9.5" text-anchor="middle">0</text>
  <text class="muted m" x="452.25" y="106" font-size="9.5" text-anchor="middle">7</text>
  <text class="muted m" x="476.75" y="106" font-size="9.5" text-anchor="middle">6</text>
  <text class="muted m" x="501.25" y="106" font-size="9.5" text-anchor="middle">5</text>
  <text class="muted m" x="525.75" y="106" font-size="9.5" text-anchor="middle">4</text>
  <text class="muted m" x="550.25" y="106" font-size="9.5" text-anchor="middle">3</text>
  <text class="muted m" x="574.75" y="106" font-size="9.5" text-anchor="middle">2</text>
  <text class="muted m" x="599.25" y="106" font-size="9.5" text-anchor="middle">1</text>
  <text class="muted m" x="623.75" y="106" font-size="9.5" text-anchor="middle">0</text>
  <text class="muted m" x="648.25" y="106" font-size="9.5" text-anchor="middle">7</text>
  <text class="muted m" x="672.75" y="106" font-size="9.5" text-anchor="middle">6</text>
  <text class="muted m" x="697.25" y="106" font-size="9.5" text-anchor="middle">5</text>
  <text class="muted m" x="721.75" y="106" font-size="9.5" text-anchor="middle">4</text>
  <text class="muted m" x="746.25" y="106" font-size="9.5" text-anchor="middle">3</text>
  <text class="muted m" x="770.75" y="106" font-size="9.5" text-anchor="middle">2</text>
  <text class="muted m" x="795.25" y="106" font-size="9.5" text-anchor="middle">1</text>
  <text class="muted m" x="819.75" y="106" font-size="9.5" text-anchor="middle">0</text>

  <rect class="fld"     x="48"    y="126" width="196"   height="34" rx="3" stroke-width="1"/>
  <rect class="fld"     x="244"   y="126" width="24.5"  height="34" rx="3" stroke-width="1"/>
  <rect class="fld"     x="268.5" y="126" width="24.5"  height="34" rx="3" stroke-width="1"/>
  <rect class="fld"     x="293"   y="126" width="24.5"  height="34" rx="3" stroke-width="1"/>
  <rect class="fldacc"  x="317.5" y="126" width="318.5" height="34" rx="3" stroke-width="1.4"/>
  <rect class="fldwarn" x="636"   y="126" width="49"    height="34" rx="3" stroke-width="1.4"/>
  <rect class="fld"     x="685"   y="126" width="49"    height="34" rx="3" stroke-width="1"/>
  <rect class="fld"     x="734"   y="126" width="98"    height="34" rx="3" stroke-width="1"/>

  <text class="ink"   x="146"    y="148" font-size="12.5" text-anchor="middle">#1 sync byte</text>
  <text class="muted" x="256.25" y="148" font-size="12"   text-anchor="middle">#2</text>
  <text class="muted" x="280.75" y="148" font-size="12"   text-anchor="middle">#3</text>
  <text class="muted" x="305.25" y="148" font-size="12"   text-anchor="middle">#4</text>
  <text class="acc"   x="476.75" y="148" font-size="12.5" text-anchor="middle" font-weight="600">#5 PID · 13비트</text>
  <text class="warn"  x="660.5"  y="148" font-size="12"   text-anchor="middle" font-weight="600">#6</text>
  <text class="muted" x="709.5"  y="148" font-size="12"   text-anchor="middle">#7</text>
  <text class="ink"   x="783"    y="148" font-size="12.5" text-anchor="middle">#8 CC</text>

  <text x="52" y="196" font-size="12" xml:space="preserve"><tspan class="ink">#1 sync byte · 8b — </tspan><tspan class="muted m">pkt[0] == 0x47</tspan></text>
  <text x="52" y="221" font-size="12" xml:space="preserve"><tspan class="ink">#2 TEI · 1b — </tspan><tspan class="muted m">pkt[1] &amp; 0x80</tspan></text>
  <text x="52" y="246" font-size="12" xml:space="preserve"><tspan class="ink">#3 PUSI · 1b — </tspan><tspan class="muted m">pkt[1] &amp; 0x40</tspan></text>
  <text x="52" y="271" font-size="12" xml:space="preserve"><tspan class="ink">#4 transport priority · 1b — </tspan><tspan class="muted m">pkt[1] &amp; 0x20</tspan></text>

  <text x="452" y="196" font-size="12" xml:space="preserve"><tspan class="acc" font-weight="600">#5 PID · 13b — </tspan><tspan class="acc m">((pkt[1] &amp; 0x1F) &lt;&lt; 8) | pkt[2]</tspan></text>
  <text x="452" y="221" font-size="12" xml:space="preserve"><tspan class="warn" font-weight="600">#6 scrambling control · 2b — </tspan><tspan class="warn m">(pkt[3] &gt;&gt; 6) &amp; 0x03</tspan></text>
  <text x="452" y="246" font-size="12" xml:space="preserve"><tspan class="ink">#7 adaptation field control · 2b — </tspan><tspan class="muted m">(pkt[3] &gt;&gt; 4) &amp; 0x03</tspan></text>
  <text x="452" y="271" font-size="12" xml:space="preserve"><tspan class="ink">#8 continuity counter · 4b — </tspan><tspan class="muted m">pkt[3] &amp; 0x0F</tspan></text>

  <line class="rule" x1="44" y1="290" x2="836" y2="290" stroke-width="1"/>
  <text x="44" y="314" font-size="13" xml:space="preserve"><tspan class="ink">바이트 경계를 걸치는 필드는 </tspan><tspan class="acc" font-weight="600">#5 PID 하나뿐이다</tspan><tspan class="ink"> — 앞 바이트의 하위 5비트와 뒤 바이트 8비트를 이어야 13비트가 된다.</tspan></text>
</svg>
